<svg width="24" height="24" viewBox="0 0 24 24" fill="none" xmlns="http://www.w3.org/2000/svg">
<path d="M15 14.2L12.2 17C12 17.2 11.7667 17.3 11.5 17.3C11.2333 17.3 11 17.2 10.8 17L2.3 8.5C2.1 8.3 2 8.075 2 7.825C2 7.575 2.1 7.35 2.3 7.15L5.1 4.35C5.3 4.15 5.54167 4.05 5.825 4.05C6.10833 4.05 6.35 4.15 6.55 4.35L15 12.8C15.2 13 15.3 13.2333 15.3 13.5C15.3 13.7667 15.2 14 15 14.2ZM11.5 14.9L12.9 13.5L5.8 6.4L4.4 7.8L11.5 14.9ZM18.6 22L14.35 17.75L15.75 16.35L20 20.6L18.6 22ZM18.5 9C17.5333 9 16.7083 8.65833 16.025 7.975C15.3417 7.29167 15 6.46667 15 5.5C15 4.53333 15.3417 3.70833 16.025 3.025C16.7083 2.34167 17.5333 2 18.5 2C19.4667 2 20.2917 2.34167 20.975 3.025C21.6583 3.70833 22 4.53333 22 5.5C22 6.46667 21.6583 7.29167 20.975 7.975C20.2917 8.65833 19.4667 9 18.5 9ZM18.5 7C18.9167 7 19.2707 6.854 19.562 6.562C19.854 6.27067 20 5.91667 20 5.5C20 5.08333 19.854 4.72933 19.562 4.438C19.2707 4.146 18.9167 4 18.5 4C18.0833 4 17.7293 4.146 17.438 4.438C17.146 4.72933 17 5.08333 17 5.5C17 5.91667 17.146 6.27067 17.438 6.562C17.7293 6.854 18.0833 7 18.5 7Z" fill="black"/>
</svg>
