<svg width="24" height="24" viewBox="0 0 24 24" fill="none" xmlns="http://www.w3.org/2000/svg">
<path d="M17.4375 3C16.491 3 15.6795 3.34275 15.0938 3.84375C14.508 4.34475 14.121 4.995 13.8517 5.60175C13.4295 6.5505 13.4032 7.119 13.359 7.47675C13.0163 7.62 12.132 7.96875 11.25 7.96875C10.1018 7.96875 9.2925 7.5 7.78125 7.5C6.84675 7.5 6.006 7.845 5.41425 8.46075C5.35724 8.52123 5.30245 8.58377 5.25 8.64825C4.97532 8.57136 4.69149 8.53201 4.40625 8.53125C3.876 8.53125 3.40425 8.79525 3.0465 9.141C2.6895 9.486 2.4255 9.91725 2.20275 10.4295C1.75875 11.4548 1.5 12.7823 1.5 14.25H3C3 12.9578 3.22875 11.8065 3.5625 11.0392C3.72975 10.6553 3.92025 10.374 4.0785 10.2188C4.236 10.0635 4.34175 10.0312 4.40625 10.0312C4.509 10.0312 4.54725 10.0462 4.617 10.0545C4.5585 10.3275 4.5 10.6058 4.5 10.8983C4.5 12.6885 5.58075 13.7723 5.97675 14.133C5.97375 14.4172 5.9445 15.3015 5.39025 16.0545L5.25 16.242V21H6.75V16.5938C7.53525 15.258 7.5 13.8045 7.5 13.8045L7.47675 13.5L7.242 13.2892C7.242 13.2892 6 12.129 6 10.8975C6 10.2562 6.1995 9.79575 6.492 9.49125C6.7845 9.18675 7.1865 8.99925 7.78125 8.99925C8.93625 8.99925 9.744 9.468 11.25 9.468C12.8348 9.468 14.2972 8.718 14.2972 8.718L14.6722 8.5305L14.7188 8.10825C14.7188 8.10825 14.7952 7.14825 15.2108 6.21075C15.4193 5.74125 15.7238 5.2935 16.0785 4.99125C16.3912 4.72125 16.752 4.53375 17.25 4.49925V5.24925C18.381 5.24925 18.8205 6.30375 18.8205 6.30375L18.867 6.42075L18.9608 6.5385L20.25 7.8045L20.109 7.96875C19.779 7.881 19.404 7.78725 19.242 7.734L18.9847 7.641L18.7267 7.734C18.7118 7.74 18.2812 7.84275 17.9528 7.78125C17.625 7.71975 17.382 7.638 17.2028 7.14825L15.7965 7.66425C15.9113 7.97775 16.0725 8.24175 16.2653 8.46075C16.1978 8.8095 16.2037 9.14925 16.2428 9.46875C16.3245 10.1813 16.5 10.8577 16.5 11.4142C16.5 12.384 15.3045 13.383 15.3045 13.383L15 13.617V21H16.5V14.3205C16.9222 13.995 18 13.0635 18 11.4142C18 10.5848 17.8035 9.84975 17.742 9.3045C17.739 9.28725 17.745 9.27525 17.742 9.258C18.2145 9.33375 18.5362 9.246 18.867 9.16425C19.3125 9.3015 20.1562 9.53925 20.1562 9.53925L20.6017 9.65625L20.9062 9.3045L21.3983 8.76525C21.9053 8.20275 21.888 7.33275 21.3517 6.79725L20.0392 5.46075L20.0153 5.48475C19.8983 5.25225 19.5203 4.5615 18.75 4.125V3H17.4375ZM9 12.75V13.5C9 15.3427 7.78125 16.2892 7.78125 16.2892L7.5 16.5V21H9V17.133C9.3135 16.8368 9.9405 16.119 10.2892 14.7188C10.8195 14.9558 11.6512 15.12 12.75 15.1875V21H14.25V13.758H13.5C11.9768 13.758 11.1795 13.5203 10.8045 13.3358C10.6912 13.2843 10.5881 13.2129 10.5 13.125L10.3358 12.75H9Z" fill="black"/>
</svg>
