<svg width="24" height="24" viewBox="0 0 24 24" fill="none" xmlns="http://www.w3.org/2000/svg">
<path d="M4.51498 22.6072H11.0175C12.2474 22.6068 13.4511 22.2512 14.4838 21.5832C15.5165 20.9151 16.3343 19.9631 16.839 18.8415L23.0167 5.09175C23.137 4.8498 23.2073 4.58609 23.2233 4.31638C23.2394 4.04666 23.2009 3.77648 23.1101 3.52199C23.0194 3.26749 22.8783 3.03389 22.6952 2.83517C22.5121 2.63645 22.2909 2.47667 22.0447 2.36539C21.7985 2.25412 21.5323 2.19362 21.2622 2.18752C20.9921 2.18143 20.7235 2.22985 20.4725 2.32991C20.2215 2.42996 19.9933 2.57959 19.8015 2.76986C19.6096 2.96012 19.4581 3.1871 19.356 3.43725L15.4702 12.084C15.0844 12.9426 14.4591 13.6717 13.6693 14.1839C12.8795 14.696 11.9588 14.9695 11.0175 14.9715H4.51498C3.51169 14.9856 2.55425 15.394 1.84973 16.1085C1.14521 16.8229 0.750244 17.786 0.750244 18.7894C0.750244 19.7928 1.14521 20.7558 1.84973 21.4703C2.55425 22.1848 3.51169 22.5932 4.51498 22.6072ZM2.90248 17.1652C3.32826 16.7316 3.90732 16.4824 4.51498 16.4715H5.17498L4.52323 21.1072H4.51498C4.06192 21.0991 3.62117 20.9583 3.24725 20.7024C2.87332 20.4464 2.5826 20.0865 2.41104 19.6671C2.23948 19.2477 2.1946 18.7872 2.28194 18.3425C2.36928 17.8979 2.58502 17.4886 2.90248 17.1652ZM9.71998 16.4715L9.06823 21.1072H7.55323L8.20573 16.4715H9.71998ZM11.3422 21.096C11.2342 21.1035 11.1255 21.1072 11.0175 21.1072H9.82498L10.4767 16.4715H11.0197C11.3497 16.4715 11.6782 16.4445 12.0022 16.3935L11.3415 21.096H11.3422ZM12.1147 20.982L12.7845 16.2195C14.2316 15.8013 15.4847 14.8858 16.323 13.6343L17.298 14.1592L15.4702 18.2273C15.1613 18.914 14.6977 19.5199 14.1157 19.9978C13.5338 20.4757 12.8492 20.8125 12.1155 20.982H12.1147ZM5.28223 21.1072L5.93323 16.4715H7.44823L6.79573 21.1072H5.28223ZM17.73 19.1565H21.8325C22.2 19.1565 22.4925 19.449 22.4925 19.8165V21.1965C22.4925 21.5565 22.2 21.8565 21.8325 21.8565H17.73C17.37 21.8565 17.07 21.564 17.07 21.1965V19.8165C17.07 19.4565 17.3625 19.1565 17.73 19.1565Z" fill="black"/>
</svg>
