<svg width="24" height="24" viewBox="0 0 24 24" fill="none" xmlns="http://www.w3.org/2000/svg">
<path d="M4 18H14C15.6667 18 17.0833 17.4167 18.25 16.25C19.4167 15.0833 20 13.6667 20 12C20 10.3167 19.3877 8.89567 18.163 7.737C16.9377 6.579 15.4667 6 13.75 6C12.95 6 12.175 6.09167 11.425 6.275C10.675 6.45833 9.95 6.73333 9.25 7.1L11.75 8.1C12.4333 8.38333 12.979 8.82067 13.387 9.412C13.7957 10.004 14 10.6667 14 11.4C14 12.4 13.6543 13.25 12.963 13.95C12.271 14.65 11.4333 15 10.45 15H4.05C4.01667 15.4 4 15.8543 4 16.363V18ZM4.4 13H10.4C10.85 13 11.2293 12.8457 11.538 12.537C11.846 12.229 12 11.85 12 11.4C12 11.0833 11.9127 10.7957 11.738 10.537C11.5627 10.279 11.3167 10.0833 11 9.95L7.3 8.45C6.6 9.06667 6.00433 9.76667 5.513 10.55C5.021 11.3333 4.65 12.15 4.4 13ZM2 20V15.75C2 14.1167 2.30833 12.5873 2.925 11.162C3.54167 9.73733 4.37933 8.49567 5.438 7.437C6.496 6.379 7.74167 5.54167 9.175 4.925C10.6083 4.30833 12.1333 4 13.75 4C14.8833 4 15.95 4.20833 16.95 4.625C17.95 5.04167 18.825 5.61267 19.575 6.338C20.325 7.06267 20.9167 7.90833 21.35 8.875C21.7833 9.84167 22 10.8833 22 12C22 13.1 21.7917 14.1373 21.375 15.112C20.9583 16.0873 20.3877 16.9377 19.663 17.663C18.9377 18.3877 18.0877 18.9583 17.113 19.375C16.1377 19.7917 15.1 20 14 20H2Z" fill="black"/>
</svg>
