<svg width="16" height="19" viewBox="0 0 16 19" fill="none" xmlns="http://www.w3.org/2000/svg">
<path d="M14.6666 14.6373C14.6666 13.8052 14.3155 13.0072 13.6903 12.4189C13.0652 11.8305 12.2174 11.5 11.3333 11.5H4.66665C3.78259 11.5 2.93474 11.8305 2.30962 12.4189C1.6845 13.0072 1.33331 13.8052 1.33331 14.6373C1.94275 17.0391 5.37622 18.1667 7.99998 18.1667C10.6237 18.1667 14.0572 17.0391 14.6666 14.6373Z" stroke="#111847" stroke-width="1.6" stroke-linecap="round" stroke-linejoin="round"/>
<path d="M7.99996 8.16667C9.84091 8.16667 11.3333 6.67428 11.3333 4.83333C11.3333 2.99238 9.84091 1.5 7.99996 1.5C6.15901 1.5 4.66663 2.99238 4.66663 4.83333C4.66663 6.67428 6.15901 8.16667 7.99996 8.16667Z" stroke="black" stroke-width="1.6" stroke-linecap="round" stroke-linejoin="round"/>
</svg>
