<svg width="20" height="20" viewBox="0 0 20 20" fill="none" xmlns="http://www.w3.org/2000/svg">
<path d="M9.40801 12.8036C9.11083 13.1305 9.13495 13.6365 9.4619 13.9337C9.78884 14.2308 10.2948 14.2067 10.592 13.8798L10.6003 13.8706C10.8975 13.5437 10.8734 13.0377 10.5464 12.7405C10.2195 12.4433 9.71353 12.4675 9.41635 12.7944L9.40801 12.8036Z" stroke="#111847" stroke-width="1.6" stroke-linecap="round" stroke-linejoin="round"/>
<mask id="path-2-outside-1_5_332" maskUnits="userSpaceOnUse" x="3.83331" y="1.33334" width="12" height="17" fill="black">
<rect fill="white" x="3.83331" y="1.33334" width="12" height="17"/>
<path d="M5.83331 16.1667V3.83334C5.83331 3.70073 5.88599 3.57355 5.97976 3.47978C6.07353 3.38601 6.2007 3.33334 6.33331 3.33334H13.6666C13.7323 3.33334 13.7973 3.34627 13.858 3.3714C13.9187 3.39652 13.9738 3.43335 14.0202 3.47978C14.0666 3.52621 14.1035 3.58133 14.1286 3.64199C14.1537 3.70266 14.1666 3.76767 14.1666 3.83334V16.1667C14.1666 16.2323 14.1537 16.2973 14.1286 16.358C14.1035 16.4187 14.0666 16.4738 14.0202 16.5202C13.9738 16.5667 13.9187 16.6035 13.858 16.6286C13.7973 16.6537 13.7323 16.6667 13.6666 16.6667H6.33331C6.2007 16.6667 6.07353 16.614 5.97976 16.5202C5.88599 16.4265 5.83331 16.2993 5.83331 16.1667Z"/>
</mask>
<path d="M5.83331 3.83334H7.43331H5.83331ZM13.6666 3.33334V4.93334V3.33334ZM13.858 3.3714L14.4703 1.89319L13.858 3.3714ZM14.1666 3.83334H15.7666H14.1666ZM14.1666 16.1667H15.7666H14.1666ZM13.858 16.6286L14.4703 18.1068L13.858 16.6286ZM6.33331 16.6667V18.2667V16.6667ZM7.43331 16.1667V3.83334H4.23331V16.1667H7.43331ZM7.43331 3.83334C7.43331 4.12507 7.31742 4.40486 7.11113 4.61115L4.84839 2.34841C4.45456 2.74224 4.23331 3.27638 4.23331 3.83334H7.43331ZM7.11113 4.61115C6.90484 4.81744 6.62505 4.93334 6.33331 4.93334V1.73334C5.77636 1.73334 5.24221 1.95459 4.84839 2.34841L7.11113 4.61115ZM6.33331 4.93334H13.6666V1.73334H6.33331V4.93334ZM13.6666 4.93334C13.5222 4.93334 13.3792 4.90488 13.2457 4.8496L14.4703 1.89319C14.2155 1.78765 13.9424 1.73334 13.6666 1.73334V4.93334ZM13.2457 4.8496C13.1122 4.79433 12.991 4.7133 12.8888 4.61115L15.1516 2.34841C14.9566 2.15341 14.7251 1.99872 14.4703 1.89319L13.2457 4.8496ZM12.8888 4.61115C12.7867 4.50901 12.7057 4.38775 12.6504 4.25429L15.6068 3.0297C15.5013 2.77491 15.3466 2.54341 15.1516 2.34841L12.8888 4.61115ZM12.6504 4.25429C12.5951 4.12082 12.5666 3.97778 12.5666 3.83334H15.7666C15.7666 3.55757 15.7123 3.28449 15.6068 3.0297L12.6504 4.25429ZM12.5666 3.83334V16.1667H15.7666V3.83334H12.5666ZM12.5666 16.1667C12.5666 16.0222 12.5951 15.8792 12.6504 15.7457L15.6068 16.9703C15.7123 16.7155 15.7666 16.4424 15.7666 16.1667H12.5666ZM12.6504 15.7457C12.7057 15.6123 12.7867 15.491 12.8888 15.3889L15.1516 17.6516C15.3466 17.4566 15.5013 17.2251 15.6068 16.9703L12.6504 15.7457ZM12.8888 15.3889C12.991 15.2867 13.1122 15.2057 13.2457 15.1504L14.4703 18.1068C14.7251 18.0013 14.9566 17.8466 15.1516 17.6516L12.8888 15.3889ZM13.2457 15.1504C13.3792 15.0951 13.5222 15.0667 13.6666 15.0667V18.2667C13.9424 18.2667 14.2155 18.2124 14.4703 18.1068L13.2457 15.1504ZM13.6666 15.0667H6.33331V18.2667H13.6666V15.0667ZM6.33331 15.0667C6.62505 15.0667 6.90484 15.1826 7.11113 15.3889L4.84839 17.6516C5.24222 18.0454 5.77636 18.2667 6.33331 18.2667V15.0667ZM7.11113 15.3889C7.31742 15.5951 7.43331 15.8749 7.43331 16.1667H4.23331C4.23331 16.7236 4.45456 17.2578 4.84839 17.6516L7.11113 15.3889Z" fill="black" mask="url(#path-2-outside-1_5_332)"/>
</svg>
