<svg width="24" height="24" viewBox="0 0 24 24" fill="none" xmlns="http://www.w3.org/2000/svg">
<g clip-path="url(#clip0_11_985)">
<path d="M23 11H21.95C21.7163 8.70597 20.6982 6.56283 19.0677 4.93231C17.4372 3.30179 15.294 2.28374 13 2.05V0H11V2.05C8.70597 2.28374 6.56283 3.30179 4.93231 4.93231C3.30179 6.56283 2.28374 8.70597 2.05 11H0V13H2.05C2.28374 15.294 3.30179 17.4372 4.93231 19.0677C6.56283 20.6982 8.70597 21.7163 11 21.95V24H13V21.95C15.294 21.7163 17.4372 20.6982 19.0677 19.0677C20.6982 17.4372 21.7163 15.294 21.95 13H24V11H23ZM13.723 11C13.5489 10.7003 13.2997 10.4511 13 10.277V7.881C13.7556 8.06552 14.4461 8.45395 14.9961 9.00395C15.546 9.55394 15.9345 10.2444 16.119 11H13.723ZM16.119 13C15.9345 13.7556 15.546 14.4461 14.9961 14.9961C14.4461 15.546 13.7556 15.9345 13 16.119V13.723C13.2997 13.5489 13.5489 13.2997 13.723 13H16.119ZM11 4.07V6.343C9.84062 6.54973 8.77253 7.10705 7.93979 7.93979C7.10705 8.77253 6.54973 9.84062 6.343 11H4.069C4.29339 9.24028 5.09582 7.60491 6.35029 6.35062C7.60476 5.09633 9.24025 4.29414 11 4.07ZM10.277 11H7.881C8.06562 10.2444 8.45409 9.55405 9.00407 9.00407C9.55405 8.45409 10.2444 8.06562 11 7.881V10.277C10.7003 10.4511 10.4511 10.7003 10.277 11ZM11 13.723V16.119C10.2444 15.9345 9.55394 15.546 9.00395 14.9961C8.45395 14.4461 8.06552 13.7556 7.881 13H10.277C10.4511 13.2997 10.7003 13.5489 11 13.723ZM4.07 13H6.343C6.54973 14.1594 7.10705 15.2275 7.93979 16.0602C8.77253 16.8929 9.84062 17.4503 11 17.657V19.931C9.24028 19.7066 7.60491 18.9042 6.35062 17.6497C5.09633 16.3952 4.29414 14.7597 4.07 13ZM13 19.93V17.657C14.1594 17.4503 15.2275 16.8929 16.0602 16.0602C16.8929 15.2275 17.4503 14.1594 17.657 13H19.931C19.7066 14.7597 18.9042 16.3951 17.6497 17.6494C16.3952 18.9037 14.7597 19.7059 13 19.93ZM17.657 11C17.4503 9.84062 16.8929 8.77253 16.0602 7.93979C15.2275 7.10705 14.1594 6.54973 13 6.343V4.069C14.7597 4.29339 16.3951 5.09582 17.6494 6.35029C18.9037 7.60476 19.7059 9.24025 19.93 11H17.657Z" fill="black"/>
</g>
<defs>
<clipPath id="clip0_11_985">
<rect width="24" height="24" fill="white"/>
</clipPath>
</defs>
</svg>
