<svg width="24" height="24" viewBox="0 0 24 24" fill="none" xmlns="http://www.w3.org/2000/svg">
<path d="M18 3C16.7662 3 15.75 4.01625 15.75 5.25C15.75 6.48375 16.7662 7.5 18 7.5C19.2338 7.5 20.25 6.48375 20.25 5.25C20.25 4.01625 19.2338 3 18 3ZM6.02325 3.16425L5.15625 4.359L9.891 7.8045C9.8085 7.89225 9.71175 7.97475 9.633 8.0625C8.66025 9.126 8.85675 10.8487 10.0545 11.6482L12.8205 13.4767L9.96075 15.1642L4.125 11.8125L3.375 13.125L16.5233 20.6722C16.5463 20.6811 16.5698 20.6886 16.5938 20.6947C16.5938 20.6947 17.124 20.9535 17.8125 21C18.501 21.0472 19.4797 20.8477 20.1097 19.992L18.9142 19.1017C18.639 19.4767 18.3195 19.5262 17.9295 19.5C17.7048 19.4871 17.4834 19.4396 17.2733 19.359L17.2035 19.3365L11.4375 16.0312L13.5705 14.7652C14.493 14.2177 14.5343 12.8317 13.6403 12.234L10.8983 10.4062C10.7905 10.3365 10.6994 10.244 10.6313 10.1352C10.5632 10.0265 10.5198 9.90409 10.5042 9.77673C10.4885 9.64937 10.501 9.52013 10.5407 9.3981C10.5804 9.27608 10.6464 9.16425 10.734 9.0705C11.13 8.637 11.5695 8.1705 11.9767 7.78125C12.5625 7.21875 13.3328 6.96075 13.9455 6.84375C14.109 6.8115 14.2267 6.9225 14.2267 7.10175L14.25 10.1017V10.4535L14.5545 10.6875L17.5312 12.9607L18.4455 11.7892L15.75 9.72675L15.7267 7.10175C15.7207 6.02025 14.7157 5.15925 13.6403 5.367C12.8438 5.52225 11.8125 5.871 10.9455 6.7035L6.02325 3.16425ZM18 4.5C18.4222 4.5 18.75 4.8285 18.75 5.25C18.75 5.67225 18.4215 6 18 6C17.5778 6 17.25 5.6715 17.25 5.25C17.25 4.82775 17.5785 4.5 18 4.5Z" fill="black"/>
</svg>
