<svg width="20" height="20" viewBox="0 0 20 20" fill="none" xmlns="http://www.w3.org/2000/svg">
<path d="M19.7407 10.1031C19.7484 10.0757 19.7516 10.0472 19.7501 10.0187C19.7521 9.9872 19.7489 9.95553 19.7407 9.925C19.7209 7.35378 18.6863 4.89447 16.862 3.08244C15.0376 1.27042 12.5714 0.252396 10.0001 0.25H9.98134C7.41812 0.257251 4.96086 1.27358 3.14138 3.07903C1.3219 4.88447 0.286567 7.33379 0.259466 9.89688C0.251784 9.9243 0.248617 9.9528 0.250091 9.98125C0.248096 10.0128 0.251263 10.0445 0.259466 10.075C0.279244 12.6462 1.31391 15.1055 3.13823 16.9176C4.96254 18.7296 7.4288 19.7476 10.0001 19.75H10.0188C12.5821 19.7428 15.0393 18.7264 16.8588 16.921C18.6783 15.1155 19.7136 12.6662 19.7407 10.1031ZM4.16884 4.16875C5.51644 2.81697 7.2937 1.97807 9.19384 1.79688C9.00936 3.69607 8.17078 5.47218 6.82153 6.82143C5.47227 8.17069 3.69616 9.00927 1.79697 9.19375C1.97584 7.29298 2.81509 5.51497 4.16884 4.16875ZM1.78759 10.7031C4.08872 10.5133 6.24783 9.51308 7.8805 7.88041C9.51317 6.24774 10.5134 4.08863 10.7032 1.7875C12.64 1.95107 14.4565 2.79476 15.8309 4.16918C17.2053 5.5436 18.049 7.36005 18.2126 9.29688C15.9115 9.48666 13.7524 10.4869 12.1197 12.1196C10.487 13.7523 9.48675 15.9114 9.29697 18.2125C7.36014 18.0489 5.54369 17.2052 4.16927 15.8308C2.79486 14.4564 1.95116 12.6399 1.78759 10.7031ZM10.8063 18.2031C10.9908 16.3039 11.8294 14.5278 13.1787 13.1786C14.5279 11.8293 16.304 10.9907 18.2032 10.8063C18.0187 12.7054 17.1802 14.4816 15.8309 15.8308C14.4816 17.1801 12.7055 18.0186 10.8063 18.2031Z" fill="black"/>
</svg>
